# xmcd CD database file
#
# Track frame offsets:
#	150
#	20860
#	37472
#	55762
#	75957
#	89770
#	115775
#	131617
#	151762
#	173015
#
# Disc length: 2634 seconds
#
# Revision: 2
# Processed by: cddbd v1.5.2PL0 Copyright (c) Steve Scherf et al.
# Submitted via: CDex 1.70beta2
#
DISCID=7c0a480a
DTITLE=The DUST'N'BONEZ - FLAME SKULL BASTARDS
DYEAR=2004
DGENRE=Hard Rock
TTITLE0=GRABBER ECCENTRIC
TTITLE1=LIBERTY
TTITLE2=Shut up and Get the fxxk Out!
TTITLE3=倦怠とノスタルジア
TTITLE4=EVERYTHING IS ALL RIGHT
TTITLE5=愛と夢☆希望の画
TTITLE6=背徳の華
TTITLE7=FREAK OUT
TTITLE8=WONDERFUL WORLD
TTITLE9=CONFUSION～失意の空　混乱の海～
EXTD=YEAR: 2004
EXTT0=
EXTT1=
EXTT2=
EXTT3=
EXTT4=
EXTT5=
EXTT6=
EXTT7=
EXTT8=
EXTT9=
PLAYORDER=
